<?xml version="1.0" standalone="no"?>
<!DOCTYPE svg PUBLIC "-//W3C//DTD SVG 20010904//EN"
 "http://www.w3.org/TR/2001/REC-SVG-20010904/DTD/svg10.dtd">
<svg version="1.0" xmlns="http://www.w3.org/2000/svg"
 width="278.000000pt" height="209.000000pt" viewBox="0 0 278.000000 209.000000"
 preserveAspectRatio="xMidYMid meet">
<metadata>
Created by potrace 1.10, written by Peter Selinger 2001-2011
</metadata>
<g transform="translate(0.000000,209.000000) scale(0.100000,-0.100000)"
fill="#ffffff" stroke="none">
<path d="M448 1768 l3 -238 47 0 47 0 -3 191 -3 190 190 -3 191 -3 0 47 0 47
-237 3 -238 3 3 -237z m84 159 l-31 -32 -4 -150 -3 -150 -2 176 c-1 97 1 179
5 182 3 4 20 7 37 7 l30 0 -32 -33z"/>
<path d="M2098 2003 l-238 -3 0 -48 0 -47 191 3 190 3 -3 -190 -3 -191 47 0
47 0 3 240 c2 132 3 239 3 238 0 -2 -107 -4 -237 -5z m187 -228 c1 -163 1
-166 -2 -30 l-4 150 -32 33 -32 33 35 -3 35 -3 0 -180z"/>
<path d="M90 1058 l0 -288 41 0 41 0 -4 220 c-1 121 0 220 5 220 4 0 7 -15 7
-32 1 -18 13 -116 28 -218 l27 -185 36 -3 c44 -4 38 -23 76 243 l28 200 3
-221 2 -221 40 0 40 0 0 286 0 287 -62 -1 -63 -1 -23 -174 c-35 -260 -35 -260
-61 -65 -12 94 -25 186 -28 205 l-5 35 -64 0 -64 0 0 -287z m94 226 c10 -26 7
-64 -6 -64 -6 0 -20 -7 -30 -17 -17 -15 -18 -14 -18 34 0 27 3 53 7 56 12 13
41 7 47 -9z m234 -48 l3 -58 -30 23 c-16 13 -30 32 -30 42 -1 29 19 58 37 55
13 -2 18 -16 20 -62z m-134 -334 c-1 -7 -2 -21 -2 -33 -3 -31 -22 -12 -22 22
0 20 4 29 13 27 6 -3 12 -10 11 -16z"/>
<path d="M510 1060 l0 -288 45 0 45 1 0 287 0 287 -45 1 -45 0 0 -288z"/>
<path d="M654 1335 c-3 -6 -3 -134 -2 -285 l3 -275 38 0 39 0 0 215 c0 244 -6
248 69 -44 l44 -170 48 -2 47 -3 0 290 0 290 -41 -3 -41 -3 1 -172 c1 -95 0
-173 -3 -173 -2 0 -23 78 -47 173 l-42 173 -55 0 c-30 0 -56 -5 -58 -11z m84
-52 c21 -40 22 -71 4 -77 -9 -3 -23 -9 -29 -12 -10 -4 -13 9 -13 50 0 43 4 56
15 56 8 0 18 -8 23 -17z m147 -451 c-9 -9 -13 0 -34 75 l-20 73 27 12 27 13 3
-84 c2 -46 0 -86 -3 -89z"/>
<path d="M990 1060 l0 -285 120 0 120 0 0 40 0 41 -76 -1 -75 0 -2 88 -2 87
63 0 62 0 0 40 0 40 -62 0 -63 0 2 77 1 78 76 0 76 -1 0 41 0 40 -120 0 -120
0 0 -285z m80 15 c0 -7 -9 -20 -20 -30 -20 -18 -20 -17 -20 30 0 47 0 48 20
30 11 -10 20 -23 20 -30z"/>
<path d="M1250 1328 c0 -10 18 -138 40 -284 22 -146 40 -266 40 -267 0 -1 27
-2 60 -2 33 0 60 1 60 2 0 1 18 122 40 270 22 147 42 275 43 283 1 11 -9 16
-39 17 l-41 3 -23 -188 c-24 -196 -37 -277 -39 -252 -1 8 -14 109 -29 225
l-27 210 -42 1 c-35 0 -43 -3 -43 -18z m152 -438 c12 0 18 -7 18 -22 -1 -61
-51 -65 -61 -5 -6 40 -1 53 15 37 5 -5 18 -10 28 -10z"/>
<path d="M1560 1060 l0 -285 125 0 125 0 0 41 0 41 -80 -5 -80 -5 0 92 0 91
65 0 65 0 0 40 0 40 -65 0 -65 0 0 81 0 82 80 -5 80 -5 0 41 0 41 -125 0 -125
0 0 -285z m78 29 c11 -18 11 -24 -4 -40 -21 -23 -34 -16 -34 20 0 45 17 54 38
20z"/>
<path d="M1844 1341 c-2 -2 -4 -131 -4 -287 l0 -282 45 0 45 1 0 124 0 123 28
0 c52 0 57 -10 62 -132 l5 -113 45 -2 45 -2 -3 97 c-3 133 -9 158 -38 181 -24
19 -24 20 -6 30 26 14 42 62 42 123 0 66 -21 112 -56 126 -28 11 -201 21 -210
13z m154 -87 c18 -12 22 -25 22 -69 0 -62 -16 -85 -61 -85 l-29 0 0 85 c0 82
1 85 23 85 12 0 33 -7 45 -16z m-86 -216 l-22 -22 0 44 0 44 22 -22 22 -22
-22 -22z"/>
<path d="M2191 1324 c-41 -34 -55 -87 -40 -154 9 -44 22 -64 79 -124 76 -81
90 -103 90 -144 0 -37 -20 -54 -57 -50 -25 3 -28 7 -31 46 l-3 42 -45 0 c-43
0 -44 -1 -44 -32 1 -49 35 -116 65 -128 38 -15 112 -12 144 5 31 15 61 77 61
123 0 64 -22 105 -95 182 -41 43 -77 90 -81 105 -10 41 10 75 45 75 30 0 41
-14 41 -56 0 -22 4 -24 46 -24 l47 0 -7 41 c-15 91 -47 119 -136 119 -37 0
-55 -6 -79 -26z"/>
<path d="M2446 1340 c-1 -3 -2 -130 -1 -284 l1 -279 122 -1 122 -1 0 41 0 41
-80 -5 -80 -5 0 92 0 91 65 0 65 0 0 40 0 40 -65 0 -65 0 0 81 0 82 80 -5 80
-5 0 41 0 41 -121 0 c-66 0 -122 -2 -123 -5z m84 -264 c0 -7 -9 -21 -20 -31
-20 -18 -20 -17 -20 24 0 39 1 41 20 31 11 -6 20 -17 20 -24z"/>
<path d="M448 353 l-3 -238 238 3 237 3 0 47 0 47 -191 -3 -190 -3 3 190 3
191 -47 0 -47 0 -3 -237z m87 -163 l30 -32 -35 4 -35 3 -1 185 0 185 5 -157 6
-157 30 -31z"/>
<path d="M2238 399 l3 -190 -190 3 -191 3 0 -47 0 -47 238 -3 237 -3 -3 238
-3 237 -47 0 -47 0 3 -191z m48 -226 c-3 -7 -20 -13 -38 -13 l-32 0 32 33 32
33 2 154 2 155 3 -175 c2 -96 1 -180 -1 -187z"/>
<path d="M878 519 c-3 -58 -3 -59 24 -59 27 0 28 2 25 51 -2 43 -6 53 -24 60
-20 7 -21 4 -25 -52z"/>
<path d="M963 572 c-21 -3 -23 -9 -23 -58 0 -53 1 -54 28 -53 16 1 20 3 10 6
-10 2 -18 13 -18 24 0 11 7 19 18 19 16 1 16 1 0 14 -24 17 -23 36 1 36 22 0
31 -19 31 -66 0 -24 5 -34 16 -34 8 0 12 5 9 11 -4 6 -2 31 5 55 7 25 10 48 6
51 -4 4 -10 -4 -13 -17 -6 -21 -7 -22 -13 -5 -7 19 -20 23 -57 17z"/>
<path d="M1073 573 c-8 -3 -13 -24 -13 -59 0 -51 1 -54 25 -54 24 0 25 3 25
54 0 53 -10 68 -37 59z m27 -58 c0 -37 -14 -54 -24 -29 -8 21 -8 59 0 67 13
13 24 -5 24 -38z"/>
<path d="M1171 575 c-2 -5 -2 -23 -2 -40 2 -24 0 -27 -9 -15 -9 12 -10 8 -6
-19 13 -71 28 -54 23 25 -2 33 -5 55 -6 49z"/>
<path d="M1275 570 c-3 -4 2 -11 11 -14 12 -5 14 -15 8 -51 -5 -37 -3 -45 9
-45 12 0 14 9 10 40 -3 23 -1 46 6 54 9 11 6 15 -14 18 -14 3 -28 2 -30 -2z"/>
<path d="M1380 556 c0 -14 -4 -26 -10 -26 -5 0 -10 9 -10 20 0 11 -4 20 -10
20 -5 0 -10 -25 -10 -55 0 -30 5 -55 10 -55 6 0 10 11 10 25 0 14 5 25 10 25
6 0 10 -11 10 -25 0 -14 4 -25 9 -25 12 0 11 109 0 116 -5 3 -9 -6 -9 -20z"/>
<path d="M1428 573 c-14 -4 -18 -15 -18 -59 0 -53 1 -54 28 -53 16 1 20 3 10
6 -21 5 -24 38 -5 47 10 5 10 7 0 12 -18 8 -16 34 2 34 8 0 15 5 15 10 0 10
-3 11 -32 3z"/>
<path d="M1497 573 c-12 -12 -7 -50 8 -63 8 -7 15 -20 15 -28 0 -12 -3 -13
-12 -4 -17 17 -29 15 -22 -3 4 -8 17 -15 30 -15 19 0 24 5 24 24 0 13 -7 29
-15 36 -8 7 -15 19 -15 27 0 13 3 13 15 3 12 -10 15 -10 15 3 0 8 -7 18 -16
21 -19 7 -19 7 -27 -1z"/>
<path d="M1550 521 c0 -58 1 -61 25 -61 24 0 25 2 23 63 -2 60 -2 60 -5 12 -6
-69 -23 -83 -23 -18 0 29 -4 55 -10 58 -6 4 -10 -17 -10 -54z"/>
<path d="M1698 573 c-15 -4 -18 -15 -18 -59 0 -30 5 -54 10 -54 6 0 10 11 10
25 0 14 5 25 10 25 6 0 10 5 10 11 0 5 -4 7 -10 4 -5 -3 -10 3 -10 14 0 11 8
21 18 23 9 2 13 6 7 9 -5 3 -18 4 -27 2z"/>
<path d="M1801 566 c-7 -8 -11 -34 -9 -58 2 -33 7 -44 22 -46 10 -2 22 2 27
10 12 18 11 28 -1 28 -5 0 -10 -7 -10 -15 0 -8 -4 -15 -10 -15 -5 0 -10 20
-10 45 0 25 5 45 10 45 6 0 10 -8 10 -17 0 -13 3 -14 12 -5 8 8 8 15 -2 27
-16 19 -24 19 -39 1z"/>
<path d="M1870 572 c-11 -5 -15 -23 -15 -60 0 -51 0 -52 30 -51 28 0 28 1 8 9
-26 10 -31 40 -8 40 8 0 15 5 15 10 0 6 -7 10 -15 10 -8 0 -15 7 -15 15 0 8 9
15 21 15 11 0 17 5 14 10 -7 11 -13 12 -35 2z"/>
<path d="M1120 515 c0 -30 5 -55 10 -55 6 0 10 11 10 24 0 13 3 38 6 55 5 24
3 31 -10 31 -13 0 -16 -11 -16 -55z"/>
<path d="M1190 515 c0 -56 0 -56 28 -53 25 3 27 6 27 53 0 47 -2 50 -27 53
-28 3 -28 3 -28 -53z m40 0 c0 -25 -4 -45 -10 -45 -5 0 -10 20 -10 45 0 25 5
45 10 45 6 0 10 -20 10 -45z"/>
<path d="M1615 515 c0 -30 3 -55 8 -55 4 0 7 11 7 25 0 14 5 25 10 25 6 0 10
-11 10 -25 0 -14 4 -25 10 -25 5 0 9 23 7 53 -2 47 -4 52 -27 55 -24 3 -25 1
-25 -53z"/>
<path d="M1733 515 c-5 -30 -6 -55 -1 -55 4 0 8 5 8 10 0 14 28 12 33 -2 10
-29 13 1 4 50 -11 69 -31 68 -44 -3z"/>
</g>
</svg>
